<?xml version="1.0" standalone="no"?>
<!DOCTYPE svg PUBLIC "-//W3C//DTD SVG 20010904//EN"
 "http://www.w3.org/TR/2001/REC-SVG-20010904/DTD/svg10.dtd">
<svg version="1.0" xmlns="http://www.w3.org/2000/svg"
 width="928.000000pt" height="166.000000pt" viewBox="0 0 928.000000 166.000000"
 preserveAspectRatio="xMidYMid meet">

<g transform="translate(0.000000,166.000000) scale(0.100000,-0.100000)"
fill="#212529">
<path d="M1780 835 l0 -825 35 0 35 0 0 825 0 825 -35 0 -35 0 0 -825z"/>
<path d="M2350 835 l0 -825 35 0 35 0 0 825 0 825 -35 0 -35 0 0 -825z"/>
<path d="M7310 835 l0 -825 35 0 35 0 0 175 0 174 157 146 c87 80 161 145 164
145 3 0 120 -144 260 -320 l254 -320 47 0 48 0 -197 248 c-108 136 -232 291
-276 345 -67 84 -77 100 -64 110 8 7 120 109 247 227 l233 215 -48 3 c-44 3
-51 0 -89 -36 -96 -91 -725 -662 -730 -662 -3 0 -6 270 -6 600 l0 600 -35 0
-35 0 0 -825z"/>
<path d="M372 803 c-193 -417 -354 -766 -358 -776 -6 -16 -2 -18 35 -15 l42 3
102 223 101 222 468 -2 469 -3 101 -223 102 -222 42 0 42 0 -170 368 c-94 202
-255 549 -358 772 l-187 405 -40 3 -40 3 -351 -758z m603 212 c114 -247 209
-458 212 -467 5 -17 -20 -18 -426 -18 -237 0 -431 2 -431 4 0 2 84 186 186
408 103 221 200 432 216 467 15 35 30 62 32 60 2 -2 97 -206 211 -454z"/>
<path d="M2950 784 l0 -775 428 3 c403 4 432 5 506 26 183 51 283 153 305 312
17 128 -13 244 -85 328 -39 46 -149 106 -213 117 -23 4 -41 10 -41 15 0 4 20
15 46 25 64 24 156 113 185 177 20 45 24 70 24 158 0 95 -3 111 -28 161 -33
69 -109 142 -181 175 -106 48 -162 54 -568 54 l-378 0 0 -776z m823 693 c179
-52 260 -148 261 -312 0 -161 -81 -261 -256 -312 -42 -13 -124 -17 -400 -20
l-348 -5 0 337 0 337 343 -4 c279 -4 353 -8 400 -21z m71 -731 c135 -38 208
-90 247 -179 19 -42 23 -70 24 -147 0 -84 -3 -101 -28 -152 -32 -65 -70 -101
-144 -135 -102 -47 -161 -53 -550 -53 l-363 0 0 346 0 346 378 -5 c312 -3 387
-7 436 -21z"/>
<path d="M4468 685 l-3 -544 69 -71 68 -70 449 0 449 0 0 550 0 550 -25 0 -25
0 0 -525 0 -525 -407 0 c-246 0 -414 4 -423 10 -10 6 127 10 398 10 l412 0 0
530 c0 464 -2 530 -15 530 -8 0 -15 7 -15 15 0 8 -4 15 -10 15 -5 0 -10 16
-10 35 l0 35 -455 0 -455 0 -2 -545z m862 -5 l0 -500 -405 0 -405 0 0 500 0
500 405 0 405 0 0 -500z m60 -50 l0 -520 -414 0 c-266 0 -417 4 -421 10 -4 7
135 10 409 10 l416 0 0 510 c0 281 2 510 5 510 3 0 5 -234 5 -520z m30 -30 l0
-520 -414 0 c-266 0 -417 4 -421 10 -4 7 133 10 404 10 l411 0 0 510 c0 333 3
510 10 510 7 0 10 -180 10 -520z"/>
<path d="M4910 816 c0 -55 -28 -93 -75 -102 -41 -7 -47 -24 -9 -24 15 0 38
-12 55 -29 24 -24 29 -38 29 -75 0 -34 4 -46 15 -46 11 0 15 12 15 46 0 37 5
51 29 75 17 17 40 29 55 29 38 0 32 17 -9 24 -47 9 -75 47 -75 102 0 32 -4 44
-15 44 -11 0 -15 -12 -15 -44z"/>
<path d="M5798 685 l-3 -544 69 -71 68 -70 449 0 449 0 0 550 0 550 -25 0 -25
0 0 -525 0 -525 -407 0 c-246 0 -414 4 -423 10 -10 6 127 10 398 10 l412 0 0
530 c0 464 -2 530 -15 530 -8 0 -15 7 -15 15 0 8 -4 15 -10 15 -5 0 -10 16
-10 35 l0 35 -455 0 -455 0 -2 -545z m862 -5 l0 -500 -405 0 -405 0 0 500 0
500 405 0 405 0 0 -500z m60 -50 l0 -520 -414 0 c-266 0 -417 4 -421 10 -4 7
135 10 409 10 l416 0 0 510 c0 281 2 510 5 510 3 0 5 -234 5 -520z m30 -30 l0
-520 -414 0 c-266 0 -417 4 -421 10 -4 7 133 10 404 10 l411 0 0 510 c0 333 3
510 10 510 7 0 10 -180 10 -520z"/>
<path d="M6250 816 c0 -55 -28 -93 -75 -102 -41 -7 -47 -24 -9 -24 15 0 38
-12 55 -29 24 -24 29 -38 29 -75 0 -34 4 -46 15 -46 11 0 15 12 15 46 0 37 5
51 29 75 17 17 40 29 55 29 38 0 32 17 -9 24 -47 9 -75 47 -75 102 0 32 -4 44
-15 44 -11 0 -15 -12 -15 -44z"/>
<path d="M8720 1163 c-217 -36 -341 -204 -286 -386 37 -123 128 -174 414 -232
229 -46 297 -79 334 -163 42 -95 2 -210 -92 -261 -90 -50 -263 -66 -401 -37
-75 16 -187 64 -237 103 l-35 26 -18 -24 c-25 -32 -24 -34 14 -62 52 -40 133
-77 215 -99 101 -27 298 -30 389 -5 168 45 252 137 253 276 0 86 -16 135 -61
181 -65 66 -120 87 -388 145 -197 42 -254 70 -301 147 -27 44 -27 135 -1 186
49 95 129 134 291 140 134 5 207 -9 310 -61 36 -17 67 -33 70 -35 3 -1 13 10
22 26 16 27 16 28 -18 50 -87 57 -230 93 -362 91 -48 -1 -98 -4 -112 -6z"/>
</g>
</svg>
